<svg width="1200" height="800" viewBox="0 0 1200 800" xmlns="http://www.w3.org/2000/svg">
  <defs>
    <linearGradient id="bg" x1="0" y1="0" x2="1" y2="1">
      <stop offset="0%" stop-color="#001524" />
      <stop offset="50%" stop-color="#012a4a" />
      <stop offset="100%" stop-color="#001219" />
    </linearGradient>
    <radialGradient id="glow" cx="0.3" cy="0.3" r="0.65">
      <stop offset="0%" stop-color="#22d3ee" stop-opacity="0.8" />
      <stop offset="100%" stop-color="#22d3ee" stop-opacity="0" />
    </radialGradient>
    <radialGradient id="glow2" cx="0.7" cy="0.8" r="0.5">
      <stop offset="0%" stop-color="#34d399" stop-opacity="0.85" />
      <stop offset="100%" stop-color="#34d399" stop-opacity="0" />
    </radialGradient>
    <pattern id="grid" width="32" height="32" patternUnits="userSpaceOnUse">
      <path d="M32 0H0V32" fill="none" stroke="#22d3ee" stroke-width="0.6" stroke-opacity="0.18" />
    </pattern>
    <filter id="blur">
      <feGaussianBlur stdDeviation="18" />
    </filter>
  </defs>
  <rect width="1200" height="800" fill="url(#bg)" />
  <rect width="1200" height="800" fill="url(#grid)" opacity="0.3" />
  <circle cx="320" cy="280" r="220" fill="#22d3ee" opacity="0.3" filter="url(#blur)" />
  <circle cx="900" cy="560" r="260" fill="#34d399" opacity="0.25" filter="url(#blur)" />
  <rect width="1200" height="800" fill="url(#glow)" />
  <rect width="1200" height="800" fill="url(#glow2)" />
  <g stroke="#34d399" stroke-opacity="0.5" stroke-width="3" fill="none">
    <polyline points="140,520 260,420 380,500 500,360 620,420 740,320 860,380 980,300 1100,340" />
    <polyline points="140,560 260,460 380,540 500,400 620,460 740,360 860,420 980,340 1100,380" stroke-dasharray="10 14" />
  </g>
</svg>
