<svg width="1200" height="800" viewBox="0 0 1200 800" xmlns="http://www.w3.org/2000/svg">
  <defs>
    <linearGradient id="bg" x1="0" y1="0" x2="1" y2="1">
      <stop offset="0%" stop-color="#0f172a" />
      <stop offset="50%" stop-color="#172554" />
      <stop offset="100%" stop-color="#0b1120" />
    </linearGradient>
    <radialGradient id="pulse" cx="0.25" cy="0.2" r="0.65">
      <stop offset="0%" stop-color="#38bdf8" stop-opacity="0.9" />
      <stop offset="100%" stop-color="#38bdf8" stop-opacity="0" />
    </radialGradient>
    <radialGradient id="pulse2" cx="0.85" cy="0.75" r="0.6">
      <stop offset="0%" stop-color="#1d4ed8" stop-opacity="0.8" />
      <stop offset="100%" stop-color="#1d4ed8" stop-opacity="0" />
    </radialGradient>
    <filter id="noise">
      <feTurbulence type="fractalNoise" baseFrequency="0.9" numOctaves="3" stitchTiles="stitch" />
      <feColorMatrix type="saturate" values="0" />
      <feComponentTransfer>
        <feFuncA type="linear" slope="0.08" />
      </feComponentTransfer>
    </filter>
  </defs>
  <rect width="1200" height="800" fill="url(#bg)" />
  <rect width="1200" height="800" fill="url(#pulse)" />
  <rect width="1200" height="800" fill="url(#pulse2)" />
  <g opacity="0.35">
    <path d="M100 600 C220 480 340 560 460 440 C580 320 700 360 820 300 C940 240 1060 320 1180 260" stroke="#38bdf8" stroke-width="3" fill="none" stroke-linecap="round" />
    <path d="M100 620 C220 500 340 580 460 460 C580 340 700 380 820 320 C940 260 1060 340 1180 280" stroke="#22d3ee" stroke-width="2" fill="none" stroke-linecap="round" stroke-dasharray="8 12" />
  </g>
  <rect width="1200" height="800" filter="url(#noise)" opacity="0.18" />
</svg>
