<?xml version="1.0" encoding="UTF-8"?>
<svg width="300" height="300" viewBox="0 0 48 48" xmlns="http://www.w3.org/2000/svg">
  <!-- Background -->
  <rect width="48" height="48" fill="transparent"/>
  
  <!-- Landscape/Background -->
  <rect x="0" y="36" width="48" height="12" fill="#5D7847"/>
  <rect x="0" y="34" width="48" height="2" fill="#8FAF6E"/>
  
  <!-- Hero Body -->
  <rect x="19" y="16" width="10" height="10" fill="#5B6EE1"/>
  
  <!-- Hero Head -->
  <rect x="21" y="12" width="6" height="6" fill="#FFD39B"/>
  <rect x="21" y="12" width="1" height="1" fill="#333333"/> <!-- Left eye -->
  <rect x="26" y="12" width="1" height="1" fill="#333333"/> <!-- Right eye -->
  <rect x="23" y="14" width="2" height="1" fill="#FF6B6B"/> <!-- Mouth -->
  
  <!-- Hero Arms -->
  <rect x="16" y="18" width="3" height="4" fill="#FFD39B"/> <!-- Left arm -->
  <rect x="29" y="18" width="3" height="4" fill="#FFD39B"/> <!-- Right arm -->
  
  <!-- Hero Legs -->
  <rect x="21" y="26" width="2" height="8" fill="#333333"/> <!-- Left leg -->
  <rect x="25" y="26" width="2" height="8" fill="#333333"/> <!-- Right leg -->
  
  <!-- Sword -->
  <rect x="30" y="13" width="2" height="8" fill="#C0C0C0"/> <!-- Sword blade -->
  <rect x="29" y="21" width="4" height="2" fill="#8B4513"/> <!-- Sword handle -->
  <rect x="30" y="9" width="2" height="4" fill="#C0C0C0"/> <!-- Sword tip -->
  
  <!-- Shield (small hint on other arm) -->
  <rect x="15" y="16" width="1" height="6" fill="#8B4513"/>
  
  <!-- Helmet/Hair details -->
  <rect x="20" y="11" width="8" height="1" fill="#4B3621"/>
  <rect x="20" y="12" width="1" height="1" fill="#4B3621"/>
  <rect x="27" y="12" width="1" height="1" fill="#4B3621"/>
  
  <!-- Pixelated Clouds -->
  <rect x="5" y="8" width="8" height="3" fill="#FFFFFF"/>
  <rect x="7" y="6" width="4" height="2" fill="#FFFFFF"/>
  <rect x="35" y="10" width="10" height="3" fill="#FFFFFF"/>
  <rect x="37" y="8" width="6" height="2" fill="#FFFFFF"/>
</svg>
